<svg xmlns="http://www.w3.org/2000/svg" viewBox="0 0 1200 520" role="img" aria-labelledby="title desc">
<title id="title">Software process-area workflow</title>
<desc id="desc">Requirements Management feeds Project Planning, which is monitored by Project Monitoring and Control, assured by Process and Product Quality Assurance, and controlled through Configuration Management.</desc>
<defs>
  <linearGradient id="g" x1="0" x2="1"><stop offset="0" stop-color="#f8fafc"/><stop offset="1" stop-color="#eef2ff"/></linearGradient>
  <filter id="s" x="-20%" y="-20%" width="140%" height="140%"><feDropShadow dx="0" dy="6" stdDeviation="8" flood-opacity="0.12"/></filter>
  <marker id="arrow" markerWidth="10" markerHeight="10" refX="8" refY="3" orient="auto" markerUnits="strokeWidth"><path d="M0,0 L0,6 L9,3 z" fill="#64748b"/></marker>
</defs>
<rect width="1200" height="520" rx="28" fill="url(#g)"/>
<text x="600" y="58" text-anchor="middle" font-family="Arial, sans-serif" font-size="30" font-weight="700" fill="#0f172a">Integrated process-area workflow</text>
<text x="600" y="92" text-anchor="middle" font-family="Arial, sans-serif" font-size="16" fill="#475569">From stakeholder needs to controlled, quality-assured delivery</text>

<g font-family="Arial, sans-serif" filter="url(#s)">
  <rect x="60" y="180" width="190" height="120" rx="18" fill="#ffffff" stroke="#cbd5e1"/>
  <text x="155" y="220" text-anchor="middle" font-size="18" font-weight="700" fill="#0f172a">RM</text>
  <text x="155" y="247" text-anchor="middle" font-size="15" fill="#334155">Requirements</text>
  <text x="155" y="268" text-anchor="middle" font-size="15" fill="#334155">Management</text>

  <rect x="300" y="180" width="190" height="120" rx="18" fill="#ffffff" stroke="#cbd5e1"/>
  <text x="395" y="220" text-anchor="middle" font-size="18" font-weight="700" fill="#0f172a">PP</text>
  <text x="395" y="247" text-anchor="middle" font-size="15" fill="#334155">Project</text>
  <text x="395" y="268" text-anchor="middle" font-size="15" fill="#334155">Planning</text>

  <rect x="540" y="180" width="190" height="120" rx="18" fill="#ffffff" stroke="#cbd5e1"/>
  <text x="635" y="220" text-anchor="middle" font-size="18" font-weight="700" fill="#0f172a">PMC</text>
  <text x="635" y="247" text-anchor="middle" font-size="15" fill="#334155">Monitoring</text>
  <text x="635" y="268" text-anchor="middle" font-size="15" fill="#334155">&amp; Control</text>

  <rect x="780" y="180" width="190" height="120" rx="18" fill="#ffffff" stroke="#cbd5e1"/>
  <text x="875" y="220" text-anchor="middle" font-size="18" font-weight="700" fill="#0f172a">PPQA</text>
  <text x="875" y="247" text-anchor="middle" font-size="15" fill="#334155">Quality</text>
  <text x="875" y="268" text-anchor="middle" font-size="15" fill="#334155">Assurance</text>

  <rect x="1020" y="180" width="120" height="120" rx="18" fill="#ffffff" stroke="#cbd5e1"/>
  <text x="1080" y="220" text-anchor="middle" font-size="18" font-weight="700" fill="#0f172a">CM</text>
  <text x="1080" y="247" text-anchor="middle" font-size="15" fill="#334155">Config.</text>
  <text x="1080" y="268" text-anchor="middle" font-size="15" fill="#334155">Control</text>
</g>

<g stroke="#64748b" stroke-width="3" fill="none" marker-end="url(#arrow)">
  <path d="M250 240 H292"/>
  <path d="M490 240 H532"/>
  <path d="M730 240 H772"/>
  <path d="M970 240 H1012"/>
</g>
<path d="M875 315 C875 420 395 420 395 315" fill="none" stroke="#64748b" stroke-width="2.5" stroke-dasharray="8 8" marker-end="url(#arrow)"/>
<text x="635" y="438" text-anchor="middle" font-family="Arial, sans-serif" font-size="15" fill="#475569">Quality findings and monitoring results feed corrective planning</text>

<g font-family="Arial, sans-serif" font-size="14" fill="#475569">
  <text x="155" y="334" text-anchor="middle">Capture &amp; trace needs</text>
  <text x="395" y="334" text-anchor="middle">Schedule &amp; budget</text>
  <text x="635" y="334" text-anchor="middle">Track progress &amp; risk</text>
  <text x="875" y="334" text-anchor="middle">Verify adherence</text>
  <text x="1080" y="334" text-anchor="middle">Protect baselines</text>
</g>
</svg>